<svg id="Layer_2" data-name="Layer 2" xmlns="http://www.w3.org/2000/svg" viewBox="0 0 96 96"><defs><style>.cls-1{fill:#fff;}</style></defs><title>icon_02</title><path class="cls-1" d="M48,84.75A36.75,36.75,0,1,1,84.75,48,36.78,36.78,0,0,1,48,84.75Zm0-71.5A34.75,34.75,0,1,0,82.75,48,34.79,34.79,0,0,0,48,13.25Z"/><path class="cls-1" d="M61.25,62.75h-26v-19h26Zm-24.5-1.5h23v-16h-23Z"/><path class="cls-1" d="M62.75,45.25h-29v-7h29Zm-27.5-1.5h26v-4h-26Z"/><rect class="cls-1" x="47.25" y="38.75" width="1.5" height="23"/><path class="cls-1" d="M38.38,39.4c-.33-.19-3.26-1.9-3.26-3.9,0-1.63,1.29-3.38,4.88-3.38,2.85,0,8.88,3.14,8.88,6.63h-1.5c0-2.31-4.94-5.13-7.38-5.13-1,0-3.38.19-3.38,1.88,0,.81,1.49,2,2.5,2.6Z"/><path class="cls-1" d="M57.87,39.4l-.74-1.3c1-.59,2.49-1.79,2.49-2.6,0-1.69-2.36-1.88-3.37-1.88-2.44,0-7.37,2.82-7.37,5.13h-1.5c0-3.49,6-6.63,8.87-6.63,3.59,0,4.87,1.75,4.87,3.38C61.12,37.5,58.2,39.21,57.87,39.4Z"/><path class="cls-1" d="M48.13,36.56a.75.75,0,0,1-.57-.26l-3.5-4.06a.75.75,0,1,1,1.13-1l3.5,4.06a.75.75,0,0,1-.08,1.06A.74.74,0,0,1,48.13,36.56Z"/><path class="cls-1" d="M48.12,36.56a.74.74,0,0,1-.48-.18.75.75,0,0,1-.08-1.06l3.5-4.06a.75.75,0,1,1,1.13,1l-3.5,4.06A.75.75,0,0,1,48.12,36.56Z"/></svg>