<svg id="Layer_2" data-name="Layer 2" xmlns="http://www.w3.org/2000/svg" viewBox="0 0 96 96"><defs><style>.cls-1{fill:#fff;}</style></defs><title>icon_03</title><path class="cls-1" d="M48,84.75A36.75,36.75,0,1,1,58.93,12.9a1,1,0,1,1-.6,1.91,34.72,34.72,0,1,0,23.61,25.7,1,1,0,0,1,.76-1.19,1,1,0,0,1,1.2.76A37.52,37.52,0,0,1,84.75,48,36.78,36.78,0,0,1,48,84.75Z"/><path class="cls-1" d="M57.71,62a.82.82,0,0,1-.45-.14L48,55.14l-9.26,6.75a.77.77,0,0,1-.89,0,.76.76,0,0,1-.27-.84l3.56-10.91-9.3-7a.75.75,0,0,1,.46-1.35H43.78l3.5-10.49a.73.73,0,0,1,.7-.51h0a.75.75,0,0,1,.71.52l3.5,11H63.7a.75.75,0,0,1,.44,1.36l-9.27,6.55,3.55,10.89a.76.76,0,0,1-.27.84A.79.79,0,0,1,57.71,62ZM48,53.46a.71.71,0,0,1,.44.15l7.83,5.7-3-9.21a.75.75,0,0,1,.28-.85l7.79-5.5H51.7a.75.75,0,0,1-.72-.52l-3-9.4-3,8.91a.74.74,0,0,1-.71.51H34.53l7.94,6a.74.74,0,0,1,.26.83l-3,9.21,7.83-5.7A.71.71,0,0,1,48,53.46Z"/><path class="cls-1" d="M78.1,28.3a5.12,5.12,0,0,0,2,1.88,5.92,5.92,0,0,0,2.94.71,5.14,5.14,0,0,0,3.87-1.63,5.78,5.78,0,0,0,1.44-3.86,5.43,5.43,0,0,0-1.62-3.92,6,6,0,0,0-4.08-1.57,6.63,6.63,0,0,0-1.42.12,4.49,4.49,0,0,0-.76.19v-.95l5.67-6.52H77.5v-2H89v1.14l-5.46,6.35a7.11,7.11,0,0,1,6.68,7.16,7.48,7.48,0,0,1-2,5.09,7,7,0,0,1-5.16,2.16,7.82,7.82,0,0,1-3.8-.9,6.94,6.94,0,0,1-2.64-2.49Z"/><path class="cls-1" d="M72.4,32.29a1,1,0,0,1-.71-.29l-8.91-8.92a1,1,0,0,1,1.41-1.41l8.92,8.91a1,1,0,0,1,0,1.42A1,1,0,0,1,72.4,32.29Z"/><path class="cls-1" d="M63.49,32.29a1,1,0,0,1-.71-.29,1,1,0,0,1,0-1.42l8.91-8.91a1,1,0,0,1,1.42,0,1,1,0,0,1,0,1.41L64.19,32A1,1,0,0,1,63.49,32.29Z"/></svg>