<svg id="Layer_2" data-name="Layer 2" xmlns="http://www.w3.org/2000/svg" viewBox="0 0 96 96"><defs><style>.cls-1{fill:#fff;}</style></defs><title>icon_05</title><path class="cls-1" d="M48,84.75A36.75,36.75,0,1,1,58.93,12.9a1,1,0,1,1-.6,1.91,34.72,34.72,0,1,0,23.61,25.7,1,1,0,0,1,.76-1.19,1,1,0,0,1,1.2.76A37.52,37.52,0,0,1,84.75,48,36.78,36.78,0,0,1,48,84.75Z"/><path class="cls-1" d="M63.73,45.25A.75.75,0,0,1,63,44.5V40.17a4.93,4.93,0,0,0-4.92-4.92H38.4a4.92,4.92,0,0,0-4.92,4.92V44.5a.75.75,0,0,1-1.5,0V40.17a6.43,6.43,0,0,1,6.42-6.42H58.06a6.43,6.43,0,0,1,6.42,6.42V44.5A.76.76,0,0,1,63.73,45.25Z"/><path class="cls-1" d="M68.23,58.75H28.73A.75.75,0,0,1,28,58V49.25a5,5,0,0,1,5-5H64a5,5,0,0,1,5,5V58A.76.76,0,0,1,68.23,58.75Zm-38.75-1.5h38v-8A3.51,3.51,0,0,0,64,45.75H33a3.5,3.5,0,0,0-3.5,3.5Z"/><path class="cls-1" d="M67.73,55.25h-39a.75.75,0,0,1,0-1.5h39a.75.75,0,0,1,0,1.5Z"/><path class="cls-1" d="M33.81,61.75H30.14A2.17,2.17,0,0,1,28,59.58V58a.75.75,0,0,1,1.5,0v1.58a.67.67,0,0,0,.66.67h3.67a.67.67,0,0,0,.67-.67V58A.75.75,0,0,1,36,58v1.58A2.17,2.17,0,0,1,33.81,61.75Z"/><path class="cls-1" d="M66.81,61.75H63.14A2.17,2.17,0,0,1,61,59.58V58a.75.75,0,0,1,1.5,0v1.58a.67.67,0,0,0,.66.67h3.67a.67.67,0,0,0,.67-.67V58A.75.75,0,0,1,69,58v1.58A2.17,2.17,0,0,1,66.81,61.75Z"/><path class="cls-1" d="M48.23,45.75a.75.75,0,0,1-.75-.75V43.33a2.09,2.09,0,0,0-2.09-2.08H39.06A2.08,2.08,0,0,0,37,43.33V45a.75.75,0,0,1-1.5,0V43.33a3.58,3.58,0,0,1,3.58-3.58h6.33A3.59,3.59,0,0,1,49,43.33V45A.76.76,0,0,1,48.23,45.75Z"/><path class="cls-1" d="M60.23,45.75a.75.75,0,0,1-.75-.75V43.33a2.09,2.09,0,0,0-2.09-2.08H51.06A2.08,2.08,0,0,0,49,43.33V45a.75.75,0,0,1-1.5,0V43.33a3.58,3.58,0,0,1,3.58-3.58h6.33A3.59,3.59,0,0,1,61,43.33V45A.76.76,0,0,1,60.23,45.75Z"/><path class="cls-1" d="M76.73,33.76A11.76,11.76,0,1,1,88.48,22,11.77,11.77,0,0,1,76.73,33.76Zm0-22A10.24,10.24,0,1,0,87,22,10.26,10.26,0,0,0,76.73,11.76Z"/><path class="cls-1" d="M71.6,22.12a.73.73,0,0,1-.53-.22.75.75,0,0,1,0-1.06l5.2-5.12a.75.75,0,0,1,1.06,0,.75.75,0,0,1,0,1.06l-5.21,5.13A.77.77,0,0,1,71.6,22.12Z"/><path class="cls-1" d="M76.73,28.75A.75.75,0,0,1,76,28V16.25a.75.75,0,0,1,.46-.69.72.72,0,0,1,.81.16l5.21,5.12a.75.75,0,1,1-1,1.07L77.48,18V28A.76.76,0,0,1,76.73,28.75Z"/></svg>