<svg id="Layer_2" data-name="Layer 2" xmlns="http://www.w3.org/2000/svg" viewBox="0 0 96 96"><defs><style>.cls-1{fill:#fff;}</style></defs><title>icon_01</title><path class="cls-1" d="M48,84.75A36.75,36.75,0,1,1,84.75,48,36.78,36.78,0,0,1,48,84.75Zm0-71.5A34.75,34.75,0,1,0,82.75,48,34.79,34.79,0,0,0,48,13.25Z"/><path class="cls-1" d="M39.75,35.25v2H29.93l-1,7.23a7.6,7.6,0,0,1,1.61-.6,7.9,7.9,0,0,1,1.83-.21,8.09,8.09,0,0,1,5.86,2.42,8.19,8.19,0,0,1,2.38,5.83,8.31,8.31,0,0,1-2.35,5.82,8.19,8.19,0,0,1-5.82,2.42,8.67,8.67,0,0,1-4-1,8.32,8.32,0,0,1-2.95-2.63l1.65-1.13a6.27,6.27,0,0,0,2.21,2,6.41,6.41,0,0,0,3,.77,5.85,5.85,0,0,0,4.39-1.86,6.32,6.32,0,0,0,1.72-4.38A6.42,6.42,0,0,0,36.7,47.5a6.31,6.31,0,0,0-4.46-1.83,5.8,5.8,0,0,0-2.38.49,6.7,6.7,0,0,0-2,1.23l-1.4-.21,1.68-11.93Z"/><path class="cls-1" d="M45.39,41.62A6.79,6.79,0,0,1,47.22,37a6.39,6.39,0,0,1,9.09,0,6.9,6.9,0,0,1,0,9.27,6.39,6.39,0,0,1-9.09,0A6.76,6.76,0,0,1,45.39,41.62Zm10.77,0a4.73,4.73,0,0,0-1.28-3.32,4.14,4.14,0,0,0-3.17-1.39,4.05,4.05,0,0,0-3.1,1.39,4.95,4.95,0,0,0,0,6.64,4.09,4.09,0,0,0,3.1,1.39,4.17,4.17,0,0,0,3.17-1.39A4.75,4.75,0,0,0,56.16,41.62ZM51.07,60.75l14.86-25.5h1.89L53,60.75Zm9.73-5.92a6.71,6.71,0,0,1,1.82-4.63,6.39,6.39,0,0,1,9.09,0,6.9,6.9,0,0,1,0,9.27,6.41,6.41,0,0,1-9.09,0A6.73,6.73,0,0,1,60.8,54.83Zm10.76,0a4.79,4.79,0,0,0-1.27-3.32,4.19,4.19,0,0,0-3.18-1.39A4.1,4.1,0,0,0,64,51.51a4.95,4.95,0,0,0,0,6.64,4.07,4.07,0,0,0,3.1,1.39,4.16,4.16,0,0,0,3.18-1.39A4.77,4.77,0,0,0,71.56,54.83Z"/></svg>