<svg id="Layer_2" data-name="Layer 2" xmlns="http://www.w3.org/2000/svg" viewBox="0 0 96 96"><defs><style>.cls-1{fill:#fff;}</style></defs><title>icon_04</title><path class="cls-1" d="M48,84.75A36.75,36.75,0,1,1,58.93,12.9a1,1,0,1,1-.6,1.91,34.72,34.72,0,1,0,23.61,25.7,1,1,0,0,1,.76-1.19,1,1,0,0,1,1.2.76A37.52,37.52,0,0,1,84.75,48,36.78,36.78,0,0,1,48,84.75Z"/><path class="cls-1" d="M70.89,32.66a.79.79,0,0,1-.44-.14.76.76,0,0,1-.27-.84l2.41-7.39-6.3-4.69a.77.77,0,0,1-.26-.84.75.75,0,0,1,.71-.51H74.5L76.89,11a.75.75,0,0,1,1.43,0l2.39,7.72h7.75a.75.75,0,0,1,.72.53.73.73,0,0,1-.3.84l-6.25,4.2L85,31.68a.76.76,0,0,1-.27.84.73.73,0,0,1-.88,0L77.6,28l-6.27,4.56A.71.71,0,0,1,70.89,32.66ZM69,19.75l4.91,3.66a.76.76,0,0,1,.27.84l-1.86,5.69,4.84-3.53a.77.77,0,0,1,.89,0l4.83,3.53L81,24.25a.74.74,0,0,1,.29-.86L86,20.25H80.16a.75.75,0,0,1-.72-.53l-1.86-6-1.82,5.53a.75.75,0,0,1-.71.51Z"/><path class="cls-1" d="M63.48,45.25a.75.75,0,0,1-.75-.75V40.17a4.93,4.93,0,0,0-4.92-4.92H38.15a4.92,4.92,0,0,0-4.92,4.92V44.5a.75.75,0,0,1-1.5,0V40.17a6.43,6.43,0,0,1,6.42-6.42H57.81a6.43,6.43,0,0,1,6.42,6.42V44.5A.76.76,0,0,1,63.48,45.25Z"/><path class="cls-1" d="M68,58.75H28.48a.75.75,0,0,1-.75-.75V49.25a5,5,0,0,1,5-5h31a5,5,0,0,1,5,5V58A.76.76,0,0,1,68,58.75Zm-38.75-1.5h38v-8a3.51,3.51,0,0,0-3.51-3.5h-31a3.5,3.5,0,0,0-3.5,3.5Z"/><path class="cls-1" d="M67.48,55.25h-39a.75.75,0,0,1,0-1.5h39a.75.75,0,0,1,0,1.5Z"/><path class="cls-1" d="M33.56,61.75H29.89a2.17,2.17,0,0,1-2.16-2.17V58a.75.75,0,0,1,1.5,0v1.58a.67.67,0,0,0,.66.67h3.67a.67.67,0,0,0,.67-.67V58a.75.75,0,0,1,1.5,0v1.58A2.17,2.17,0,0,1,33.56,61.75Z"/><path class="cls-1" d="M66.56,61.75H62.89a2.17,2.17,0,0,1-2.16-2.17V58a.75.75,0,0,1,1.5,0v1.58a.67.67,0,0,0,.66.67h3.67a.67.67,0,0,0,.67-.67V58a.75.75,0,0,1,1.5,0v1.58A2.17,2.17,0,0,1,66.56,61.75Z"/><path class="cls-1" d="M48,45.75a.75.75,0,0,1-.75-.75V43.33a2.09,2.09,0,0,0-2.09-2.08H38.81a2.08,2.08,0,0,0-2.08,2.08V45a.75.75,0,0,1-1.5,0V43.33a3.58,3.58,0,0,1,3.58-3.58h6.33a3.59,3.59,0,0,1,3.59,3.58V45A.76.76,0,0,1,48,45.75Z"/><path class="cls-1" d="M60,45.75a.75.75,0,0,1-.75-.75V43.33a2.09,2.09,0,0,0-2.09-2.08H50.81a2.08,2.08,0,0,0-2.08,2.08V45a.75.75,0,0,1-1.5,0V43.33a3.58,3.58,0,0,1,3.58-3.58h6.33a3.59,3.59,0,0,1,3.59,3.58V45A.76.76,0,0,1,60,45.75Z"/></svg>