<svg xmlns="http://www.w3.org/2000/svg" viewBox="0 0 794 134"><style>.st0,.st1{fill:#231f20}.st1{opacity:.6;enable-background:new}.st2{fill:#1d1e21}</style><path class="st0" d="M758 95.9l-.1-.3c-.1-.1-.2-.1-.2 0-.5.2-1 .4-1.5.4-1.4 0-1.6-.9-1.6-2.1v-7l3 .1c.1 0 .2-.1.2-.2v-.9c0-.1-.1-.2-.3-.2h-3v-3.5c0-.1-.1-.3-.2-.3s-.2.1-.3.2l-1.2 2.9c-.1.3-.4.6-.7.6h-1.4c-.1 0-.3.1-.3.2v.8c0 .1.1.2.3.2h2.1v7.5c0 1.7 1.1 2.4 3.2 2.4.8 0 1.5-.2 2.1-.6-.1 0-.1-.1-.1-.2m-8.6-2.4c0-3.8-6.6-3.4-6.6-5.7 0-1 .9-1.6 2-1.6 2 0 3 .3 3.7 2.3 0 .1.1.2.2.2.2 0 .2-.2.2-.3v-2.6c0-.1-.1-.3-.3-.3-1.2-.2-2.4-.3-3.5-.3-2.7 0-3.6 1.3-3.6 3.1 0 3.8 6.5 3 6.5 5.7 0 1.1-1.3 1.7-2.2 1.7-2.1 0-3.3-.5-4.1-2.7 0-.2-.1-.3-.3-.3-.2 0-.2.1-.2.3.1.4.1.9.1 1.4s.1 1 .1 1.4c0 .2.2.3.3.3 1.2.3 2.4.5 3.7.5 2.1.2 3.9-.4 4-3.1m-12.1-4.3c0 .4-.2.8-.7.9-.5.1-.9.1-1.4.1h-2.6c-.2 0-.4-.1-.4-.3v-.1c.3-2.1 1.3-3.4 2.8-3.4 1.3-.1 2.4.8 2.3 2.8m2.1 1.1c0-3.5-2.3-4.9-4.3-4.9-2.6 0-4.9 2.3-4.9 5.7 0 4.2 2.5 5.8 4.8 5.8 1.7 0 3.2-.8 4-2.3.1-.1.1-.1 0-.2l-.4-.4c-.1 0-.2 0-.2.1-.6.9-1.7 1.5-2.8 1.6-1.5 0-3.2-1-3.3-4.1 0-.3.2-.5.5-.5h6c.4-.1.6-.4.6-.8m-9.8 6.1c-.1-.2-.2-.3-.4-.3l-.7-.1c-.5-.1-.9-.6-.9-1.1v-7.1l.1-1.7c0-.2-.1-.3-.3-.3h-3.1c-.2 0-.4.1-.4.2.1.2.2.3.4.3l.5.2c.5.1.9.6.9 1.2v6c0 1.2-1.8 2-2.8 2-1.2.1-2.3-.7-2.4-1.9V88c-.1-.5 0-1.1.3-1.5.1-.1.3-.2.3-.4 0-.1-.1-.2-.3-.2h-3.6c-.2 0-.4.1-.4.2.1.2.2.3.4.3l.4.2c.5.1.9.6.9 1.2V93c0 2.7 1.5 4.1 3.7 4.1 1.3 0 2.5-.5 3.3-1.5 0-.1.1-.1.2-.1 0 0 .1 0 .1.1l.4.9c.1.2.2.3.4.3h2.6c.1-.3.3-.3.4-.4m-13.1-7.2c0-.2-.2-.3-.3-.3h-3.9c-.2 0-.3 0-.3.2.1.2.2.3.3.4.2.3.3.6.3.9V93c0 1.6-1.8 2.7-3.3 2.7-3.6 0-4.5-3.7-4.5-6.6s.5-7.4 4.2-7.4c2.6 0 3.6 1.1 4.2 3.7 0 .1.1.3.2.3s.3-.1.3-.2v-4.1c0-.2-.1-.3-.3-.3-1.5-.1-3-.4-4.5-.4-3.6 0-6.6 3.1-6.6 8.1 0 5.6 3.2 8.1 6.9 8.1 1 0 2-.3 2.8-.8.2-.2.4-.2.6-.1l1.6.7c.1 0 .2.1.3.1.1 0 .2-.1.2-.2v-.1c0-.1 0-.2-.1-.2-.2-.2-.2-.5-.2-.7v-4.8c0-.6.3-1.1.9-1.2l.8-.2c.2 0 .3-.1.4-.2m72.4-16.7c0 .2-.1.4-.2.5-.5.9-1.4 1.4-2.4 1.5-1.5 0-3-1.1-3-4.5 0-2.9 1.1-4.7 2.9-4.7 2 0 2.7.9 2.7 2.7v4.5zm4 2.8c-.1-.2-.2-.3-.4-.3l-.8-.2c-.5-.1-.9-.6-.8-1.2v-13l.1-1.7c0-.2-.1-.3-.3-.3H787c-.2 0-.4.1-.4.2.1.2.2.3.4.3l1.1.2c.5.1.9.6.9 1.2v4.1c0 .1 0 .2-.1.2h-.1c-.8-.3-1.7-.4-2.5-.4-2.5 0-4.8 2.2-4.8 5.7 0 4.2 2.1 5.8 4.5 5.8 1.1 0 2.1-.5 2.8-1.3.1-.1.1-.1.2-.1s.1.1.2.1l.3.7c.1.2.2.3.4.3h2.7c.1 0 .3-.1.3-.3m-15-7.1c0 .4-.2.8-.7.9-.5.1-.9.1-1.4.1h-2.7c-.2 0-.4-.1-.4-.3v-.1c.3-2.1 1.3-3.4 2.8-3.4 1.3-.1 2.4.8 2.4 2.8m2 1.1c0-3.5-2.3-4.9-4.3-4.9-2.6 0-4.9 2.3-4.9 5.7 0 4.2 2.5 5.8 4.8 5.8 1.7 0 3.2-.8 4-2.3v-.2l-.4-.3h-.2v.1c-.6.9-1.7 1.5-2.8 1.6-1.5 0-3.2-1-3.3-4.1 0-.3.2-.5.5-.5h6c.4-.2.6-.5.6-.9m-9.9-4.4c0-.2-.2-.4-.4-.4-.3-.1-.6-.1-.9-.2-1.4 0-2.7.7-3.4 1.8l-.1.1c-.1 0-.2-.1-.2-.1l-.5-1.3c0-.2-.2-.3-.4-.3h-2.6c-.2 0-.4 0-.4.2.1.2.2.3.4.3l.8.2c.5.1.9.6.9 1.1v7.3c0 .5-.3 1-.8 1.2l-.5.2c-.2 0-.4.1-.4.3 0 .1.2.2.4.2h4.7c.2 0 .4-.1.4-.2-.1-.2-.2-.3-.4-.3l-.5-.2c-.5-.1-.9-.6-.9-1.2V68c0-.4.1-.8.3-1.1.5-.8 1.3-1.2 2.1-1.2.6-.1 1.3.2 1.5.8 0 .3.2.6.4.8.2 0 .2-.2.3-.4l.2-2zm-9 0c0-.2-.2-.4-.4-.4-.3-.1-.6-.1-.9-.2-1.4 0-2.7.7-3.4 1.8-.1.1-.2.1-.3 0l-.1-.1-.4-1.2c0-.2-.2-.3-.4-.3h-2.6c-.2 0-.4 0-.4.2.1.2.2.3.4.3l.8.2c.5.1.9.6.9 1.1v7.3c0 .5-.3 1-.8 1.2l-.5.2c-.2 0-.4.1-.4.3 0 .1.2.2.4.2h4.7c.2 0 .4-.1.4-.2-.1-.2-.2-.3-.4-.3l-.5-.2c-.5-.1-.9-.6-.9-1.2V68c0-.4.1-.8.3-1.1.5-.8 1.3-1.2 2.1-1.2.6-.1 1.3.2 1.5.8 0 .3.2.6.4.8.2 0 .2-.2.3-.4l.2-2zm-11.4 3.3c0 .4-.2.8-.7.9-.5.1-.9.1-1.4.1h-2.7c-.2 0-.4-.1-.4-.3v-.1c.3-2.1 1.3-3.4 2.8-3.4 1.3-.1 2.4.8 2.4 2.8m2 1.1c0-3.5-2.3-4.9-4.3-4.9-2.6 0-4.9 2.3-4.9 5.7 0 4.2 2.5 5.8 4.8 5.8 1.7 0 3.2-.8 4-2.3.1-.1.1-.1 0-.2l-.4-.3h-.2c-.6.9-1.6 1.5-2.8 1.6-1.5 0-3.2-1-3.3-4.1 0-.3.3-.5.6-.5h6c.3-.1.5-.5.5-.8m-9.4-9.9c.1-.1 0-.3-.1-.4-.7-.4-1.4-.6-2.2-.6-2.1 0-3.6.9-3.6 3.3v3h-1.4c-.1 0-.3.1-.3.2v.7c0 .1.1.2.2.3h1.4v7.9c.1.5 0 .9-.3 1.3-.2.1-.3.2-.3.4 0 .1.1.2.3.2h3.9c.2 0 .4-.1.4-.2-.1-.2-.2-.3-.4-.3l-.8-.2c-.5-.1-.9-.6-.9-1.2v-7.9l3.6.1c.1 0 .2-.1.3-.2v-.9c0-.1-.1-.2-.2-.2h-3.6v-3.5c-.1-.9.5-1.7 1.4-1.8h.1c.8.1 1.5.7 1.9 1.4 0 .1.1.1.2.1.2 0 .3-.1.3-.2l.1-1.3zm-10.9 8.7c0 .4-.2.8-.7.9-.5.1-.9.1-1.4.1h-2.6c-.2 0-.4-.1-.4-.3v-.1c.2-2.1 1.3-3.4 2.8-3.4 1.2-.1 2.3.9 2.3 2.8m2 1.1c0-3.5-2.3-4.9-4.3-4.9-2.6 0-4.9 2.3-4.9 5.7 0 4.2 2.5 5.8 4.8 5.8 1.7 0 3.2-.8 4-2.3 0-.1 0-.2-.1-.2l-.4-.3h-.2c-.6.9-1.7 1.5-2.8 1.6-1.5 0-3.2-1-3.3-4.1 0-.3.2-.5.5-.5h6c.5-.1.7-.4.7-.8m-9.9-4.3c0-.2-.2-.4-.4-.4-.3-.1-.6-.1-.9-.2-1.4 0-2.7.7-3.4 1.8l-.1.1c-.1 0-.2-.1-.2-.1l-.4-1.2c0-.2-.2-.3-.4-.3H715c-.2 0-.4 0-.4.2.1.2.2.3.4.3l.8.2c.5.1.9.6.9 1.1v7.3c0 .5-.3 1-.8 1.2l-.5.2c-.2 0-.4.1-.4.3 0 .1.2.2.4.2h4.7c.2 0 .4-.1.4-.2-.1-.2-.2-.3-.4-.3l-.5-.2c-.5-.1-.9-.6-.9-1.2v-5.6c0-.4.1-.8.3-1.1.5-.8 1.3-1.2 2.1-1.2.6-.1 1.3.2 1.5.8 0 .3.2.6.4.8.2 0 .2-.2.3-.4l.1-2.1zm-11.4-.7c0 3-2 3.7-4.4 3.7h-1.3c-.3 0-.5-.2-.5-.5v-5.9c0-.3.3-.6.7-.6h1.4c2.9.1 4.1 1.1 4.1 3.3m2.3.1c0-3.2-2.5-4.3-5.5-4.3h-7.1c-.2 0-.4 0-.4.2.1.2.2.3.4.3l1.1.2c.5.1.9.6.8 1.2v12.2c.1.5-.3 1-.8 1.2-.2 0-.4.1-.4.3 0 .1.2.2.4.2h4.7c.2 0 .4-.1.4-.2-.1-.2-.2-.3-.4-.3l-.8-.2c-.5-.1-.9-.6-.9-1.2v-4.4c0-.3.2-.4.5-.4h1.7c4.3-.2 6.4-2.2 6.3-4.8m75.8-12.9c0 .2-.1.4-.2.6-.5.9-1.4 1.4-2.4 1.5-1.5 0-2.9-1.1-2.9-4.5 0-2.9 1.1-4.7 2.9-4.7 2 0 2.7.9 2.7 2.7v4.4h-.1zm3.9 2.9c-.1-.2-.2-.3-.4-.3l-.8-.2c-.5-.1-.9-.6-.8-1.2v-13l.1-1.7c0-.2-.1-.3-.3-.3h-3.5c-.2 0-.4 0-.4.2.1.2.2.3.4.3l1.1.2c.5.1.9.6.9 1.1v4.1c0 .1 0 .2-.1.2h-.1c-.8-.3-1.7-.4-2.5-.4-2.5 0-4.8 2.2-4.8 5.7 0 4.2 2.1 5.8 4.5 5.8 1.1 0 2.1-.5 2.8-1.3.1-.1.1-.1.2-.1s.1.1.2.1l.3.7c.1.2.2.3.4.3h2.6c0 .1.2 0 .2-.2m-15.1-4.9c0 1.9-.5 4.5-2.9 4.5s-3.1-3.2-3.1-5.2.5-4.3 2.9-4.3c2.6 0 3 3 3.1 5m1.9-.3c0-3-1.8-5.7-5-5.7s-5 2.7-5 5.7 1.8 5.8 5 5.8 5-2.8 5-5.8m-13.6.3c0 1.9-.5 4.5-2.9 4.5-2.6 0-3.1-3.2-3.1-5.2s.6-4.3 3-4.3c2.6.1 3 3.1 3 5m2-.3c0-3-1.8-5.7-5-5.7s-5 2.7-5 5.7 1.8 5.8 5 5.8 5-2.8 5-5.8M759 43.8c0-.1-.2-.2-.4-.2h-3c-.2 0-.4.1-.4.2s.1.2.2.2l.7.3c.3.2.4.6.3.9l-1.8 6.9c0 .1-.2.1-.2.1s-.1 0-.1-.1l-2.7-8.1c-.1-.1-.3-.2-.5-.2s-.4 0-.5.2l-2.9 7.9c0 .1-.1.1-.2.1 0 0-.1 0-.1-.1l-1.6-6.8c-.1-.3 0-.7.3-.9l.5-.3c.1 0 .2-.1.2-.2s-.2-.2-.4-.2h-3.7c-.2 0-.4.1-.4.2.1.2.2.3.4.3l.5.2c.3.1.5.3.6.6l2.9 9.7c.2.2.5.3.7.2.3 0 .5 0 .7-.2l2.6-7.1c.1-.1.2-.1.3-.1l.1.1 2.4 7.1c.2.2.5.3.7.2.3.1.6 0 .8-.2l3.2-9.8c.1-.3.4-.6.7-.7-.1.1.1 0 .1-.2m-16.9.1c0-.2-.2-.4-.4-.4-.3-.1-.6-.1-.9-.1-1.4 0-2.7.7-3.4 1.8l-.1.1c-.1 0-.1 0-.2-.1l-.4-1.2c0-.2-.2-.3-.4-.3h-2.6c-.2 0-.4.1-.4.2.1.2.2.3.4.3l.8.2c.5.1.9.6.9 1.1v7.3c0 .5-.3 1-.8 1.2l-.5.2c-.2 0-.4.1-.4.3 0 .1.2.2.4.2h4.6c.2 0 .4-.1.4-.2-.1-.2-.2-.3-.4-.3l-.5-.2c-.5-.1-.9-.6-.8-1.2v-5.6c0-.4.1-.8.3-1.1.5-.8 1.3-1.2 2.1-1.2.6-.1 1.3.2 1.5.8 0 .3.2.6.4.8.2 0 .2-.2.3-.4l.1-2.2zm-12.6 8c0 1.2-1.3 2-3 2-1.4 0-2-.9-2-2.3 0-.7.5-1.4 1.3-1.5l3.4-1c.2-.1.3 0 .3.2v2.6zm3.9 2.5c-.1-.2-.2-.3-.4-.3l-.8-.2c-.5-.1-.9-.6-.8-1.2v-5.5c0-3-1.6-3.9-4.2-3.9-1.1 0-2.2.2-3.3.3-.1 0-.3.1-.3.2v3.1c0 .1.1.2.1.2.1 0 .2-.1.2-.1.4-1.9 1.2-2.7 3.1-2.7.9 0 2.4.4 2.4 1.7v1c0 .8-.6 1.1-1.4 1.3-1.2.4-2.7.6-3.6 1-1.1.4-1.8 1.5-1.8 2.7 0 1.9 1.4 2.8 3.2 2.8 1.2 0 2.3-.3 3.3-1 .1-.1.2-.1.3-.1.1 0 .2.1.3.2l.2.4c.1.2.3.3.5.3h2.6c.2 0 .4-.1.4-.2m-11.7-.5l-.1-.3c0-.1-.1-.1-.2-.1l-.1.1c-.5.2-1 .4-1.5.4-1.4 0-1.6-.9-1.6-2.1v-7l3 .1c.1 0 .2-.1.2-.2v-.9c0-.2-.1-.2-.3-.2h-3v-3.4c0-.1-.1-.3-.2-.3s-.2.1-.3.2l-1.2 2.9c-.1.3-.4.6-.7.6h-1.5c-.1 0-.3.1-.3.2v.8c0 .1.1.2.3.2h2.1v7.5c0 1.7 1.1 2.4 3.2 2.4.8 0 1.5-.2 2.1-.6.1-.1.1-.2.1-.3m-8.5-3.5c0-5.9-8.8-4.3-8.8-8.5 0-1.4 1.1-2.1 2.6-2.1 2.8 0 4.3 1 4.9 3.8 0 .1.1.2.2.2s.2-.1.2-.3v-4c0-.2-.1-.3-.3-.3-1.7-.3-3.3-.4-5-.5-2.6 0-4.5 1.5-4.5 4.2 0 5.3 8.8 3.8 8.8 8.3 0 1.8-1.5 2.6-3.3 2.6-2.6 0-4.2-.8-5.2-3.8 0-.1-.1-.2-.2-.2s-.2.2-.2.3l.4 4c0 .2.2.3.4.3 1.5.2 3.1.4 4.6.5 2.9-.1 5.4-1.3 5.4-4.5M672 80.8c0 6.1-7.5 7.2-12.1 7.2-5 0-12.8-1.8-12.8-7.8 0-1.7.6-4.6 2.7-5.3 1.6 0 8-.2 12.4-.2 7.1 0 9.8 1.6 9.8 6.1m-5.1-29.4c0 5.3-2.8 8.9-8.4 8.9-6.6 0-9.8-4.4-9.8-10.8 0-5.3 3-8.5 8.5-8.5 6.6-.1 9.7 3.9 9.7 10.4m13.7-10v-2.2c0-.6-.3-.7-.9-.7l-14.3.6c-2.4-1-4.9-1.5-7.5-1.5-8.6 0-15.4 5.1-15.4 12.8 0 4.9 2.9 9.4 7.5 11.2.3.1.5.3.5.6s-.3.6-.6.6c-2.5 1.1-4 3.5-4 6.2.1 1.6.8 3.1 2.1 4.1-3.4 1.8-5.6 5.3-5.7 9.1 0 7.8 7.4 10.6 14.1 10.6 8.4 0 20.4-3.1 20.4-13.5 0-8.2-5.2-10.2-12.8-10.2-4 0-8.6.3-10.2.3-2.6 0-3.6-1.4-3.6-2.9 0-2.1 2.2-3.4 5.2-3.4h2.5c8.6 0 15.3-5.2 15.3-12.8.1-2.9-1-5.8-2.9-8l9.4-.3c.4.1.9-.2 1-.6-.1.1-.1 0-.1 0m-48.4 15.5c0 9.7-3.7 15.6-9.6 15.6-6.7 0-8.8-2.9-8.8-8.9V48.7c0-.7.2-1.3.6-1.8 2-3.1 5.4-4.9 8-4.9 5.2 0 9.8 3.6 9.8 14.9m6.6-.1c0-13.9-6.9-19.2-14.7-19.2-3.5.1-6.9 1.6-9.2 4.2-.2.2-.4.4-.7.4-.3 0-.5-.2-.6-.4l-1-2.3c-.2-.6-.7-1-1.4-1h-9.7c-.8 0-1.4.2-1.4.7.2.6.8 1 1.4.9l3.5.5c1.6.3 2.8 1.7 2.8 3.9v41.2c0 2.5-.4 3.8-1 4.4s-1.1.7-1.1 1.2.3.6 1.1.6h12.8c.8 0 1.4-.2 1.4-.7s-.6-.8-1.4-.9l-2.7-.5c-1.8-.4-3-2-2.9-3.9V74.7c-.1-.3.1-.6.4-.6h.3c2.7.9 5.5 1.4 8.4 1.4 8.3 0 15.8-7.3 15.8-18.7m-39.5 7.8c0-12.6-21.7-11.3-21.7-18.7 0-3.4 2.9-5.2 6.7-5.2 6.7 0 9.9 1.1 12 7.6.1.4.3.7.7.8.5 0 .5-.7.5-1l-.2-8.5c0-.5-.4-.8-.9-.9-3.9-.6-7.8-.9-11.7-1-8.8 0-12 4.3-12 10.2 0 12.4 21.5 9.8 21.5 18.9 0 3.7-4.1 5.6-7.3 5.6-7.1 0-11-1.6-13.5-8.8 0-.5-.4-1-.9-1-.6 0-.7.5-.6 1 .2 1.2.3 3.1.4 4.6s.3 3.3.3 4.6c.1.6.5 1 1.1 1.1 4 1.1 8.1 1.6 12.2 1.7 7.3-.1 13.3-2.4 13.4-11m94.2 8l-3-3.7 4.7-.8v-.4l-4.7-.8 3.1-3.7c-.1-.1-.1-.2-.2-.3l-4.2 2.4v-4.8h-.4l-1.6 4.5-3.1-3.7-.3.2 1.6 4.5-4.7-.8c0 .1-.1.2-.1.4l4.2 2.4-4.2 2.4c0 .1.1.2.1.4l4.7-.8-1.6 4.5.3.2 3.1-3.7 1.6 4.5.4-.1v-4.8l4.2 2.4.1-.4"/><path class="st1" d="M529.7 0h1.4v134h-1.4z"/><path class="st2" d="M306 75.4v9.5h-2.9v-20h7c1.4-.1 2.8.3 3.9 1.2 2.3 1.8 2.6 5.2.8 7.5-.2.3-.5.6-.8.8-.7.6-1.5.9-2.4 1.1l7.2 9.6h-3.5l-7.1-9.5H306zm4-2.8c.9.1 1.7-.2 2.4-.8 1-1 1-2.6 0-3.7-.7-.6-1.5-.9-2.4-.8h-4v5.2l4 .1zm30.8.1v2.7h-8.4v6.7h10.7v2.7h-13.6v-20h13.3v2.7h-10.5v5.2h8.5zm20.1 12.2H359l-5.9-20.1h2.7l4.2 14.6 4.6-14.5h1.9l4.6 14.5 4.2-14.5h2.7L372.1 85h-1.9l-4.5-15-4.8 14.9zm40.2-5.2h-8.5l-2.1 5.2h-3l8.3-20.1h2l8.3 20.1h-3l-2-5.2zm-7.3-2.7h6.2l-3.1-7.5-3.1 7.5zm26.3-1.6v9.5h-2.9v-20h7c1.4-.1 2.8.3 3.9 1.2 2.3 1.8 2.6 5.2.8 7.5-.2.3-.5.6-.8.8-.7.6-1.5.9-2.4 1.1l7.2 9.6h-3.4l-7.2-9.5h-2.2zm4-2.8c.9.1 1.7-.2 2.4-.8 1-1 1-2.6 0-3.7-.7-.6-1.5-.9-2.4-.8h-4v5.2l4 .1zm19.5 12.3V64.8h6c2.4-.2 4.9.5 6.9 1.9 4.5 3.5 5.3 9.9 1.9 14.4-.5.7-1.2 1.3-1.9 1.9-2 1.4-4.5 2-6.9 1.9h-6zm11.6-15.7c-1.3-1.1-2.9-1.7-5.7-1.7h-3v14.6h3c2.8 0 4.5-.6 5.7-1.7 3.1-2.9 3.3-7.8.4-10.9-.1 0-.3-.2-.4-.3zm17.4 10.5c1.2 1.6 3 2.6 5 2.6 1.8.2 3.4-1.2 3.6-3v-.1c0-3.1-4.3-3.5-7.1-5.3-1.6-.9-2.6-2.6-2.6-4.5 0-3 2.6-5.4 6.2-5.4 2 0 4 .7 5.5 2l-1.7 2.1c-1-.9-2.3-1.4-3.7-1.4-1.7 0-3.4 1-3.4 2.8 0 2.6 4.4 3.2 7 4.9 1.7 1 2.7 2.8 2.7 4.7 0 3.6-2.8 5.9-6.3 5.9-2.8 0-5.4-1.3-7.2-3.4l2-1.9zm16.5 3.2V84h-.5v-2.4h.9c.2 0 .4.1.5.2.3.2.3.7.1.9l-.1.1c-.1.1-.2.1-.2.1l.9 1.1h-.6l-.9-1.1h-.1zm.4-.4c.1 0 .2 0 .2-.1.1-.1.1-.3 0-.4-.1-.1-.1-.1-.2-.1h-.4v.5h.4z"/><path class="st2" d="M489.5 85.1c-1.3 0-2.4-1.1-2.4-2.3s1.1-2.4 2.3-2.4 2.4 1.1 2.4 2.3c0 1.4-1 2.4-2.3 2.4zm0-4.3c-1.1 0-2 .9-2 2s.9 2 2 2 2-.9 2-2-.9-2-2-2zm-91.7-45.1c-.8-.4-1.7-.7-2.6-.7-1.3 0-2.4.7-3.1 1.7v14h-5.5V31.2h5l.3 2.1c.8-1.5 2.4-2.4 4.1-2.5.6 0 1.2.1 1.7.3l.1 4.6zm13-4.7c-.6-.2-1.1-.3-1.7-.3-1.7.1-3.3 1-4.1 2.5l-.3-2h-5v19.6h5.5v-14c.7-1.1 1.8-1.7 3.1-1.7.9 0 1.8.3 2.6.7l-.1-4.8zm-27.5 5.8v14h-5l-.3-2c-1.3 1.6-3.2 2.5-5.3 2.5-3.1 0-5.3-2.4-5.3-5.6 0-6.9 8.2-7.9 10.4-8.1V37c0-1.1-1-2.3-3.5-2.3-1.8.1-3.6.7-5.1 1.7v-4c2.1-1 4.5-1.5 6.8-1.5 5.1-.2 7.2 2.1 7.3 5.9zm-5.5 4.5c-1.7 0-4.9.6-4.9 3.3-.1 1.2.8 2.3 2.1 2.4h.1c1.5 0 2.8-1.1 2.8-3.6l-.1-2.1zm-30.1-15.9l4.9 10.5-1.9 4.1-8.2-17.6-6.2 2.9 4.9 10.6c-.4.8-1 2.2-2 4.3-2.3 4.8-4 6.2-7.1 6.2-.8 0-1.7-.2-2.5-.5l-2.9 6.2c1.5.6 3.1 1 4.7 1 3.6 0 6.3-2.4 8.7-7.4l2.9-6.2 5.2 11.2h7.6l-3.3-7.1 1.9-4.1 5.2 11.2h7.6L354 22.4l-6.3 3zM457 31.2v-6.5l-5.4 2.6v3.9h-1.8v3.4h1.8v16.2h5.5V34.6h2.8v-3.4H457zm-44.2 19.6h5.5V31.2h-5.5v19.6zm32.6-26.1l-5.5 2.6v3.9h-1.8v3.4h1.8v16.2h5.5V34.6h2.8v-3.4h-2.8v-6.5zm-8.5 14.7v3.2c0 4.7-2.3 8.6-7.9 8.6s-7.9-3.9-7.9-8.6v-3.2c0-4.7 2.3-8.6 7.9-8.6s7.9 3.9 7.9 8.6zm-5.5-.8c0-2.3-.6-4-2.4-4s-2.4 1.7-2.4 4v4.8c0 2.3.6 4 2.4 4s2.4-1.7 2.4-4v-4.8zm-.2 67.3c0 2.7-2.2 4.9-4.9 4.9s-4.9-2.2-4.9-4.9 2.2-4.9 4.9-4.9 4.9 2.2 4.9 4.9c0-.1 0-.1 0 0m11.6 0c0 2.4-2 4.4-4.4 4.4-2.4 0-4.4-2-4.4-4.4 0-2.4 2-4.4 4.4-4.4 2.4-.1 4.4 1.9 4.4 4.4 0-.1 0-.1 0 0m11.6 0c0 2.2-1.8 4-4 4s-4-1.8-4-4 1.8-4 4-4 4 1.7 4 4m11.6 0c0 1.9-1.6 3.5-3.5 3.5s-3.5-1.6-3.5-3.5 1.6-3.5 3.5-3.5c1.9-.1 3.5 1.5 3.5 3.5m11.6 0c0 1.7-1.4 3.1-3.1 3-1.7 0-3.1-1.4-3-3.1 0-1.7 1.4-3 3.1-3 1.7 0 3 1.3 3.1 2.9-.1.1-.1.1-.1.2m11.6 0c0 1.4-1.2 2.6-2.6 2.6-1.4 0-2.6-1.2-2.6-2.6 0-1.4 1.2-2.6 2.6-2.6 1.4-.1 2.6 1.1 2.6 2.6 0-.1 0-.1 0 0m-72.6 0c0 3-2.4 5.4-5.4 5.4-3 0-5.4-2.4-5.4-5.4 0-3 2.4-5.4 5.4-5.4 3-.1 5.4 2.4 5.4 5.4 0-.1 0-.1 0 0m-57.2 0c0 2.7 2.2 4.9 4.9 4.9s4.9-2.2 4.9-4.9-2.2-4.9-4.9-4.9-4.9 2.1-4.9 4.9c0-.1 0-.1 0 0m-11.6 0c0 2.4 2 4.4 4.4 4.4 2.4 0 4.4-2 4.4-4.4 0-2.4-2-4.4-4.4-4.4-2.4-.1-4.4 1.9-4.4 4.4 0-.1 0-.1 0 0m-11.6 0c0 2.2 1.8 4 4 4s4-1.8 4-4-1.8-4-4-4-4 1.7-4 3.9v.1m-11.6 0c0 1.9 1.6 3.5 3.5 3.5s3.5-1.6 3.5-3.5-1.6-3.5-3.5-3.5c-1.9-.1-3.5 1.5-3.5 3.5 0-.1 0-.1 0 0m-11.6 0c0 1.7 1.4 3.1 3.1 3s3.1-1.4 3-3.1c0-1.7-1.4-3-3-3-1.8 0-3.1 1.3-3.1 3.1 0-.1 0-.1 0 0m-11.6 0c0 1.4 1.1 2.6 2.6 2.6 1.4.1 2.7-1 2.8-2.4.1-1.4-1-2.7-2.4-2.8h-.3c-1.6 0-2.7 1.1-2.7 2.6m72.6 0c0 3 2.4 5.4 5.4 5.4 3 0 5.4-2.4 5.4-5.4 0-3-2.4-5.4-5.4-5.4-3 0-5.4 2.4-5.4 5.4m15.2 0c0 3.4 2.8 6.1 6.1 6.1s6.1-2.8 6.1-6.1c0-3.4-2.8-6.2-6.1-6.2s-6.1 2.8-6.1 6.2"/><path class="st1" d="M261.6 0h1.4v134h-1.4z"/><path class="st0" d="M219.5 58.8l-7.4-8.4h-4.9v.6c1.5 0 1.7.2 1.7 1.5v7c0 2.5-.5 2.8-1.8 2.8v.7h4.5v-.7c-1.4 0-1.9-.3-1.9-1.8v-8.3l9.8 11.1h.7V52.8c0-1.6.8-1.7 1.7-1.7v-.7h-4.5v.6c1.1 0 2 .2 2 1.7l.1 6.1zM199.1 50c-3.4 0-6.9 2.2-6.9 6.6s3.5 6.6 6.9 6.6 6.8-2.2 6.8-6.6-3.4-6.6-6.8-6.6zm0 12.7c-2.4 0-3.4-2.1-3.4-6s1.1-6 3.4-6 3.4 2.1 3.4 6-1 6-3.4 6zm-16.3-1.4c0 .9-.3 1-1.6 1v.7h6.3v-.7c-1.3 0-1.6-.1-1.6-1v-9.7c0-.3.2-.6.5-.7h.2c1.7.3 3.2 1.4 4 2.9l.5-.2-.8-3.7h-.5c-.4.2-.8.3-1.2.3h-8.3c-.2 0-.4 0-.7-.1-.2-.1-.4-.1-.6-.2h-.6l-.8 3.7.5.2c.8-1.6 2.3-2.7 4-2.9.3-.1.6.2.7.5v9.9zm-15.1 0c0 .9-.3 1-1.6 1v.7H178l1-3.7h-.6c-1.7 2.5-2.9 3-5.9 3-1.4 0-1.7-.2-1.7-.9V52c0-.9.3-1 1.6-1v-.6H166v.6c1.3 0 1.6.1 1.6 1l.1 9.3zm-4.9-.3l-2.1-3.2c-.3-.7-.9-1.1-1.6-1.1 2-.1 3.3-1.2 3.3-2.8s-1.4-3.5-5.5-3.5h-6.3v.7c1.3 0 1.6.1 1.6 1v9.2c0 .9-.3 1-1.6 1v.7h6.3v-.7c-1.3 0-1.6-.1-1.6-1v-4.4c1.3 0 1.8.2 2.1.8l2.9 5.3h4.3v-.7c-.7 0-1-.1-1.8-1.3zm-6.4-4.7h-1.1V51h.7c2.6 0 3.2 1.5 3.2 2.7 0 1.9-1.3 2.6-2.8 2.6zm-9.3 4.6l-5.3-10.2c-.1-.2-.2-.4-.4-.5-.6.8-1.3 1.4-2.1 2 .2.1.4.3.4.6 0 .2-.1.4-.2.6l-3.2 6.6c-.8 1.7-1.3 2.3-2.5 2.3v.7h4.6v-.7c-1.2 0-1.7-.3-1.7-.8.1-.6.4-1.2.7-1.7h5.7c.5.6.8 1.3.9 2 0 .4-.4.5-1.7.5v.7h6.8v-.7c-1.1-.1-1.4-.3-2-1.4zm-9.5-1.9l2.5-5.3 2.6 5.3h-5.1zm-6.2-.4c-1.1 2.3-2.8 4-4.9 4-1.9 0-4-1.5-4-6 0-4.1 1.7-6 4.2-6s3.7 1.5 4.7 3.4h.5v-3.9h-.4c-.2.3-.6.5-1 .5-1.4-.3-2.8-.5-4.2-.7-4.5 0-7.3 3-7.3 6.9 0 3.5 2.9 6.4 6.9 6.4 1.5-.1 3-.4 4.5-.9.5 0 .9.4 1 .9h.4v-4.7h-.4v.1zm-38.7 4.3h11l1.3-3.8h-.5c-1.8 2.4-3 3.2-4.8 3.2h-3.1l8-11.7v-.3h-11l-1.2 3.5h.4c1.4-1.9 3-2.9 4.6-2.9h2.9l-7.8 11.5v.5h.2zm-9.8-1.6c0 .9-.3 1-1.6 1v.7h6.3v-.7c-1.3 0-1.6-.1-1.6-1v-9.7c0-.3.2-.6.5-.7h.2c1.7.3 3.2 1.4 4 2.9l.5-.2-.8-3.6h-.5c-.4.2-.8.3-1.2.3h-8.3c-.2 0-.4 0-.7-.1-.2-.1-.4-.1-.6-.2h-.5l-.8 3.7.5.2c.8-1.6 2.3-2.7 4-2.9.3 0 .6.2.7.5v.2l-.1 9.6zm-11.4 0c0 .9-.3 1-1.6 1v.7h6.3v-.7c-1.3 0-1.6-.1-1.6-1V52c0-.9.3-1 1.6-1v-.7h-6.3v.7c1.3 0 1.6.1 1.6 1v9.3zm-5.1-.3l-2.1-3.2c-.3-.7-.9-1.1-1.6-1.1 2-.1 3.3-1.2 3.3-2.8s-1.4-3.5-5.5-3.5h-6.3v.7c1.3 0 1.6.1 1.6 1v9.2c0 .9-.3 1-1.6 1v.7h6.3v-.7c-1.3 0-1.6-.1-1.6-1v-4.4c1.3 0 1.8.2 2.1.8l2.9 5.3h4.3v-.7c-.7 0-1.1-.1-1.8-1.3zm-6.5-4.7h-1.1V51h.7c2.6 0 3.2 1.5 3.2 2.7.1 1.9-1.3 2.6-2.8 2.6zm-25.8 5c0 .9-.3 1-1.6 1v.7h11.6l1-3.7h-.6c-1 2-3.1 3.2-5.4 3-1.7 0-1.9-.2-1.9-.8v-4.8h.8c2.3 0 3.3.6 3.7 2.4h.5v-5.6h-.5c-.5 1.9-1.3 2.6-3.7 2.6h-.8v-4.3c0-.7.2-.8 1.2-.8 2.8 0 4.2.8 6 2.8h.5l-1.3-3.4H32.5v.6c1.3 0 1.6.1 1.6 1v9.3zm-8.4 0c0 .9-.3 1-1.6 1v.7h6.3v-.7c-1.3 0-1.6-.1-1.6-1V52c0-.9.3-1 1.6-1v-.7h-6.3v.7c1.3 0 1.6.1 1.6 1v3.8h-6.4V52c0-.9.3-1 1.6-1v-.7h-6.3v.7c1.3 0 1.6.1 1.6 1v9.2c0 .9-.3 1-1.6 1v.7H21v-.7c-1.3 0-1.6-.1-1.6-1v-4.5h6.4l-.1 4.6zm-20.6 0c0 .9-.3 1-1.6 1v.7h6.3v-.7c-1.3 0-1.6-.1-1.6-1v-9.7c-.1-.3.2-.6.5-.7h.2c1.7.3 3.2 1.4 4 2.9l.5-.2-.8-3.6H12c-.4.2-.8.3-1.2.3H2.5c-.2 0-.4 0-.7-.1-.2-.1-.4-.1-.6-.2H.8L0 53.7l.5.2c.8-1.6 2.3-2.7 4-2.9.3 0 .6.2.7.5v.2l-.1 9.6zm103.8-3.8h4.3l1.7-2.5h-4.2l-1.8 2.5z"/><path class="st0" d="M219.5 58.8l-7.3-8.4h-4.9v.6c1.5 0 1.7.2 1.7 1.5v7c0 2.5-.5 2.8-1.8 2.8v.7h4.5v-.7c-1.4 0-1.9-.3-1.9-1.8v-8.3l9.8 11.1h.7V52.8c0-1.6.8-1.7 1.7-1.7v-.7h-4.5v.6c1.1 0 2 .2 2 1.7v6.1zM199.1 50c-3.4 0-6.9 2.2-6.9 6.6s3.5 6.6 6.9 6.6 6.9-2.2 6.9-6.6-3.5-6.6-6.9-6.6zm0 12.7c-2.4 0-3.4-2.1-3.4-6s1.1-6 3.4-6 3.4 2.1 3.4 6-1 6-3.4 6zm-16.3-1.4c0 .9-.3 1-1.6 1v.7h6.3v-.7c-1.3 0-1.6-.1-1.6-1v-9.7c-.1-.3.2-.6.5-.7h.2c1.7.3 3.2 1.4 4 2.9l.5-.2-.8-3.7h-.5c-.4.2-.8.3-1.2.3h-8.3c-.2 0-.4 0-.7-.1-.2-.1-.4-.1-.6-.2h-.5l-.8 3.7.5.2c.8-1.6 2.3-2.7 4-2.9.3-.1.6.2.7.5v.2l-.1 9.7zm-15.1 0c0 .9-.3 1-1.6 1v.7H178l1-3.7h-.6c-1.7 2.5-2.9 3-5.9 3-1.4 0-1.7-.2-1.7-.9V52c0-.9.3-1 1.6-1v-.6h-6.3v.6c1.3 0 1.6.1 1.6 1v9.3zm-4.9-.3l-2.1-3.2c-.3-.7-.9-1.1-1.6-1.1 2-.1 3.3-1.2 3.3-2.8s-1.4-3.5-5.5-3.5h-6.3v.7c1.3 0 1.6.1 1.6 1v9.2c0 .9-.3 1-1.6 1v.7h6.3v-.7c-1.3 0-1.6-.1-1.6-1v-4.4c1.3 0 1.8.2 2.1.8l2.9 5.3h4.3v-.7c-.7 0-1-.1-1.8-1.3zm-6.4-4.7h-1.1V51h.7c2.6 0 3.2 1.5 3.2 2.7 0 1.9-1.3 2.6-2.8 2.6zm-9.3 4.6l-5.3-10.2c-.1-.2-.2-.4-.4-.5-.6.8-1.3 1.4-2.1 2 .2.1.4.3.4.6 0 .2-.1.4-.2.6l-3.2 6.6c-.8 1.7-1.3 2.3-2.5 2.3v.7h4.6v-.7c-1.2 0-1.7-.3-1.7-.8.1-.6.3-1.2.7-1.7h5.7c.5.6.8 1.3.9 2 0 .4-.4.5-1.7.5v.7h6.8v-.7c-1.1-.1-1.4-.3-2-1.4zm-9.5-1.9l2.5-5.3 2.6 5.3h-5.1zm-6.2-.4c-1.1 2.3-2.8 4-4.9 4-1.9 0-4-1.5-4-6 0-4.1 1.7-6 4.2-6 2.3 0 3.7 1.5 4.7 3.4h.5v-3.9h-.4c-.2.3-.6.5-1 .5-1.4-.3-2.8-.5-4.2-.7-4.5 0-7.3 3-7.3 6.8 0 3.5 2.9 6.4 6.9 6.4 1.5-.1 3-.4 4.5-.9.5 0 .9.4 1 .9h.4v-4.7h-.4v.2zm-38.7 4.3h11l1.3-3.8h-.5c-1.8 2.4-3 3.2-4.8 3.2h-3.1l8-11.7v-.3h-11l-1.2 3.5h.4c1.4-1.9 3-2.9 4.6-2.9h2.9l-7.8 11.5v.5h.2zm-9.8-1.6c0 .9-.3 1-1.6 1v.7h6.3v-.7c-1.3 0-1.6-.1-1.6-1v-9.7c-.1-.3.2-.6.5-.7h.2c1.7.3 3.2 1.4 4 2.9l.5-.2-.8-3.6h-.5c-.4.2-.8.3-1.2.3h-8.3c-.2 0-.4 0-.7-.1-.2-.1-.4-.1-.6-.2h-.5l-.8 3.7.5.2c.8-1.6 2.3-2.7 4-2.9.3-.1.6.2.7.5v.2l-.1 9.6zm-11.4 0c0 .9-.3 1-1.6 1v.7h6.3v-.7c-1.3 0-1.6-.1-1.6-1V52c0-.9.3-1 1.6-1v-.7h-6.3v.7c1.3 0 1.6.1 1.6 1v9.3zm-5.1-.3l-2.1-3.2c-.3-.7-.9-1.1-1.6-1.1 2-.1 3.3-1.2 3.3-2.8s-1.4-3.5-5.5-3.5h-6.3v.7c1.3 0 1.6.1 1.6 1v9.2c0 .9-.3 1-1.6 1v.7h6.3v-.7c-1.3 0-1.6-.1-1.6-1v-4.4c1.3 0 1.8.2 2.1.8l2.9 5.3h4.3v-.7c-.7 0-1.1-.1-1.8-1.3zm-6.5-4.7h-1.1V51h.7c2.6 0 3.2 1.5 3.2 2.7.1 1.9-1.3 2.6-2.8 2.6zm-25.8 5c0 .9-.3 1-1.6 1v.7h11.6l1-3.7h-.6c-1 2-3.1 3.2-5.4 3-1.7 0-1.9-.2-1.9-.8v-4.8h.8c2.3 0 3.3.6 3.7 2.4h.5v-5.6h-.5c-.5 1.9-1.3 2.6-3.7 2.6h-.8v-4.3c0-.7.2-.8 1.2-.8 2.8 0 4.2.8 6 2.8h.5l-1.3-3.4H32.5v.6c1.3 0 1.6.1 1.6 1v9.3zm-8.3 0c0 .9-.3 1-1.6 1v.7h6.3v-.7c-1.3 0-1.6-.1-1.6-1V52c0-.9.3-1 1.6-1v-.7h-6.3v.7c1.3 0 1.6.1 1.6 1v3.8h-6.4V52c0-.9.3-1 1.6-1v-.7h-6.3v.7c1.3 0 1.6.1 1.6 1v9.2c0 .9-.3 1-1.6 1v.7H21v-.7c-1.3 0-1.6-.1-1.6-1v-4.5h6.4v4.6zm-20.7 0c0 .9-.3 1-1.6 1v.7h6.3v-.7c-1.3 0-1.6-.1-1.6-1v-9.7c-.1-.3.2-.6.5-.7h.2c1.7.3 3.2 1.4 4 2.9l.5-.2-.7-3.6h-.5c-.4.2-.8.3-1.2.3H2.5c-.2 0-.4 0-.7-.1-.2-.1-.4-.1-.6-.2H.8L0 53.7l.5.2c.8-1.6 2.3-2.7 4-2.9.3-.1.6.2.7.5v.2l-.1 9.6zm103.8-3.8h4.3l1.7-2.5h-4.2l-1.8 2.5zM10.1 84.1l-3.8-5.3H3.5v5.3H2.2V71h5.2c2.7 0 4.2 1.7 4.2 3.8.1 2-1.5 3.7-3.5 3.8h-.3l4 5.4h-1.7zm.1-9.2c0-1.4-1.1-2.7-2.5-2.7H3.5v5.4h3.8c1.4.2 2.7-.8 2.9-2.3v-.4zm7.7 9.2V71h8.7v1.2h-7.4v4.6h7.3V78h-7.3v5h7.4v1.2l-8.7-.1zm25.4 0l-3.3-11-3.2 11h-1.4L31.5 71h1.4l3.2 11.2L39.4 71h1.2l3.3 11.2L47.1 71h1.4l-3.9 13.1h-1.3zM59 71l5.7 13.1h-1.5L61.8 81h-7.1l-1.3 3.2h-1.5L57.5 71H59zm-.8 1.5l-3.1 7.3h6.3l-3.2-7.3zm19.7 11.6l-3.8-5.3h-2.9v5.3h-1.3V71h5.2c2.7 0 4.2 1.7 4.2 3.8.1 2-1.5 3.7-3.5 3.8h-.3l4 5.4h-1.6v.1zm0-9.2c0-1.4-1.1-2.7-2.5-2.7h-4.2v5.4H75c1.4.2 2.8-.8 3-2.2 0-.2 0-.3-.1-.5zm7.8 9.2V71h4.4c4.3 0 6.9 3 6.9 6.6 0 3.6-2.6 6.5-6.9 6.5h-4.4zm10-6.5c.1-2.9-2.1-5.3-4.9-5.4H87V83h3.1c2.8.2 5.3-1.9 5.5-4.8.1-.2.1-.4.1-.6zm6.7 4.8l.8-.9c1.1 1.2 2.6 1.9 4.2 1.9 2.6 0 3.6-1.3 3.6-2.6 0-3.8-8.2-1.7-8.2-6.3 0-2.1 2-3.6 4.5-3.6 1.8-.1 3.5.6 4.7 1.9l-.8.9c-1-1.1-2.4-1.7-3.9-1.6-1.8 0-3.2 1-3.2 2.4 0 3.3 8.2 1.4 8.2 6.3 0 2-1.5 3.8-4.9 3.8-1.9-.1-3.8-.8-5-2.2z"/></svg>